<?xml version="1.0" standalone="no"?>
<!DOCTYPE svg PUBLIC "-//W3C//DTD SVG 20010904//EN"
 "http://www.w3.org/TR/2001/REC-SVG-20010904/DTD/svg10.dtd">
<svg version="1.0" xmlns="http://www.w3.org/2000/svg"
 width="451.000000pt" height="387.000000pt" viewBox="0 0 451.000000 387.000000"
 preserveAspectRatio="xMidYMid meet">

<g transform="translate(0.000000,387.000000) scale(0.100000,-0.100000)"
fill="#000000" stroke="none">
<path d="M4125 3713 c-11 -3 -25 -11 -30 -18 -6 -7 -22 -15 -35 -17 -14 -1
-33 -11 -42 -21 -9 -10 -20 -18 -25 -19 -4 0 -7 -4 -5 -10 1 -5 -2 -7 -6 -4
-5 3 -23 -7 -39 -23 -16 -15 -76 -66 -134 -112 -57 -47 -113 -92 -124 -101
-41 -34 -442 -340 -989 -753 -362 -274 -472 -360 -475 -370 -4 -12 -28 -29
-53 -38 -12 -4 -15 -2 -12 8 7 17 -53 58 -115 80 -112 39 -243 -3 -306 -99
-44 -66 -59 -128 -53 -224 11 -190 161 -342 336 -342 124 0 233 95 257 223 8
40 2 38 148 52 l57 5 0 -38 c0 -51 -31 -167 -61 -227 -40 -81 -121 -160 -207
-202 -75 -37 -78 -38 -192 -38 -112 0 -117 1 -190 36 -183 88 -312 256 -354
462 -20 94 -20 152 -1 241 43 203 187 353 370 387 145 27 319 -35 432 -151
l41 -43 69 53 c37 30 72 57 77 61 12 11 -87 113 -160 165 -283 202 -630 187
-854 -37 -56 -56 -80 -90 -119 -172 -30 -61 -56 -133 -65 -179 -31 -150 -16
-362 35 -497 82 -221 234 -396 424 -490 110 -55 191 -74 305 -74 172 -1 303
55 431 182 124 125 183 258 203 461 l11 115 85 7 c46 4 87 5 90 2 3 -3 4 -54
3 -114 -6 -309 -146 -590 -376 -751 -132 -92 -314 -145 -475 -136 -114 6 -129
9 -246 48 -162 54 -276 129 -409 269 -223 233 -341 549 -324 869 13 244 93
447 239 606 96 105 202 175 334 220 107 37 302 46 420 20 219 -48 410 -167
566 -353 l36 -44 71 53 c45 34 67 57 63 65 -23 40 -128 156 -196 216 -136 118
-259 191 -416 245 -123 43 -209 58 -345 57 -167 -1 -284 -28 -426 -99 -102
-52 -152 -87 -238 -169 -230 -222 -353 -551 -338 -911 6 -152 26 -261 72 -402
160 -483 552 -842 997 -913 112 -18 332 -8 426 19 377 109 652 433 727 856 10
53 16 148 17 233 l0 142 32 1 c17 0 56 3 87 5 l56 5 6 -93 c33 -569 -252
-1097 -708 -1312 -174 -83 -326 -112 -544 -103 -304 12 -555 117 -819 340
-289 244 -506 635 -567 1022 -54 345 -11 644 135 940 147 296 372 498 674 604
134 47 255 64 416 57 188 -7 354 -52 525 -139 197 -101 411 -281 529 -444 21
-29 41 -53 46 -53 9 0 124 88 128 98 4 14 -118 166 -206 256 -287 293 -629
463 -1003 498 -242 22 -485 -20 -693 -122 -165 -81 -242 -136 -366 -260 -198
-198 -336 -452 -400 -740 -40 -178 -45 -227 -45 -410 0 -191 16 -320 64 -505
136 -529 500 -994 960 -1225 214 -107 436 -161 666 -161 217 0 387 38 580 131
517 249 833 843 800 1503 -4 82 -3 137 3 137 5 0 112 9 238 19 126 11 267 22
314 26 279 21 426 37 435 46 7 7 5 10 -5 8 -8 -1 -23 1 -34 6 -12 5 -21 3 -26
-6 -7 -11 -10 -11 -15 2 -3 9 -5 20 -4 25 6 21 -14 55 -41 69 -39 20 -66 19
-173 -6 -146 -34 -194 -62 -167 -94 7 -9 11 -17 9 -19 -2 -2 -188 -21 -414
-41 -225 -21 -423 -39 -440 -40 -16 -2 -190 -17 -385 -34 -195 -18 -364 -35
-375 -38 -27 -8 -126 -11 -145 -4 -21 7 23 19 76 20 53 1 57 15 33 111 -11 40
-18 74 -16 75 7 5 160 75 162 75 9 0 45 -116 56 -174 l11 -66 67 5 c119 11
115 8 107 71 -3 30 -20 98 -37 150 -17 53 -29 97 -27 98 56 31 150 68 157 60
17 -19 63 -156 81 -245 10 -50 21 -93 23 -95 2 -3 41 -2 86 2 77 7 81 8 81 31
0 45 -41 206 -76 300 -20 52 -34 96 -32 97 42 24 149 68 154 64 14 -15 84
-235 110 -346 l28 -124 35 6 c20 3 52 6 71 6 57 0 60 6 45 87 -19 99 -70 273
-107 366 -17 43 -29 80 -27 82 8 8 324 165 332 165 5 0 34 12 65 26 91 42 105
47 137 49 36 2 175 65 158 72 -6 2 -38 -1 -70 -7 -32 -7 -68 -12 -80 -11 -13
0 -23 -4 -23 -9 0 -6 -4 -10 -8 -10 -4 0 -8 24 -8 53 0 106 -48 142 -126 95
-58 -36 -159 -139 -179 -182 -21 -49 -12 -82 22 -79 28 2 -82 -52 -781 -382
-289 -137 -530 -255 -537 -263 -10 -12 -63 -25 -63 -15 0 2 35 20 78 39 42 20
79 38 81 40 2 2 -4 12 -13 23 -17 18 -14 21 60 79 l78 61 24 -37 c14 -20 26
-38 26 -39 2 -3 166 77 166 82 0 2 -14 28 -31 56 -19 29 -28 54 -22 57 5 4 37
29 72 56 34 26 64 46 66 45 2 -2 21 -34 43 -71 l39 -67 76 36 c43 20 77 41 77
46 0 5 -20 43 -45 85 -25 41 -45 78 -45 81 0 4 30 29 67 55 l66 48 18 -23 c10
-13 36 -59 59 -101 l41 -78 72 36 c40 20 73 38 75 39 5 4 -43 97 -88 170 l-39
64 302 227 c166 126 324 245 350 266 41 32 56 38 98 38 78 0 283 90 401 177
71 51 62 74 -35 88 l-48 7 22 24 c23 24 18 27 -26 17z m-2005 -1523 c-11 -20
-30 -28 -30 -12 0 11 22 32 32 32 5 0 4 -9 -2 -20z m-98 -72 c-7 -7 -12 -8
-12 -2 0 6 3 14 7 17 3 4 9 5 12 2 2 -3 -1 -11 -7 -17z m22 -52 c-3 -9 -10
-16 -15 -16 -14 0 -11 28 4 33 16 6 19 3 11 -17z m-78 -43 c-10 -10 -19 5 -10
18 6 11 8 11 12 0 2 -7 1 -15 -2 -18z m158 -98 c-7 -17 -20 -20 -28 -6 -7 10
3 21 20 21 8 0 11 -6 8 -15z"/>
<path d="M3790 2900 c0 -5 4 -10 9 -10 6 0 13 5 16 10 3 6 -1 10 -9 10 -9 0
-16 -4 -16 -10z"/>
<path d="M4370 2130 c-9 -6 -10 -10 -3 -10 6 0 15 5 18 10 8 12 4 12 -15 0z"/>
<path d="M3351 1339 c-6 -18 -11 -39 -10 -48 1 -9 7 4 15 28 16 51 12 68 -5
20z"/>
<path d="M3305 1188 c-108 -330 -351 -632 -635 -793 -84 -48 -243 -110 -340
-134 -278 -67 -617 -49 -880 49 -218 81 -447 218 -623 374 -89 79 -94 82 -172
99 -70 15 -84 22 -113 55 -19 20 -12 9 14 -26 72 -95 278 -290 379 -358 169
-114 345 -197 524 -245 71 -19 81 -24 62 -32 -25 -12 -26 -20 -7 -37 36 -29
367 -27 551 4 383 65 614 141 615 204 1 10 36 41 88 77 157 108 293 262 425
480 55 90 158 348 144 361 -3 3 -17 -32 -32 -78z"/>
</g>
</svg>
