<?xml version="1.0" encoding="utf-8"?>
<!-- Generator: Adobe Illustrator 16.0.4, SVG Export Plug-In . SVG Version: 6.00 Build 0)  -->
<!DOCTYPE svg PUBLIC "-//W3C//DTD SVG 1.1//EN" "http://www.w3.org/Graphics/SVG/1.1/DTD/svg11.dtd">
<svg version="1.1" id="Ebene_1" xmlns="http://www.w3.org/2000/svg" xmlns:xlink="http://www.w3.org/1999/xlink" x="0px" y="0px"
	 width="841.89px" height="595.28px" viewBox="0 0 841.89 595.28" enable-background="new 0 0 841.89 595.28" xml:space="preserve">
<g>
	<path d="M672,283.28c0,10,0,20,0,30c-0.956,7.216-1.856,14.438-2.877,21.646c-14.966,105.677-98.637,191.589-204.067,209.448
		c-9.306,1.576-18.702,2.617-28.056,3.906c-10,0-20,0-30,0c-7.382-0.973-14.771-1.892-22.145-2.926
		c-104.722-14.693-191.557-99.268-208.888-203.527c-1.575-9.474-2.657-19.029-3.968-28.547c0-10,0-20,0-30
		c0.974-7.381,1.908-14.768,2.926-22.143c14.384-104.22,99.12-191.411,203.028-208.82c9.637-1.615,19.362-2.704,29.046-4.037
		c10,0,20,0,30,0c7.217,0.954,14.443,1.852,21.65,2.87c105.605,14.931,191.981,99.062,209.445,204.076
		C669.644,264.537,670.71,273.928,672,283.28z M647.939,303.562c2.726-125.553-96.476-228.25-220.41-231.185
		C301.322,69.39,198.89,169.319,196.087,292.993c-2.851,125.783,96.801,228.521,220.875,231.202
		C542.676,526.913,645.004,427.321,647.939,303.562z"/>
	<path fill-rule="evenodd" clip-rule="evenodd" d="M223.442,298.049c0.197-109.464,89.834-198.893,198.792-198.328
		c109.869,0.568,198.773,89.679,198.336,198.795c-0.44,109.709-89.807,198.86-198.806,198.329
		C311.929,496.309,223.245,407.413,223.442,298.049z M422.124,123.844c-96.713,0.039-174.639,77.903-174.572,174.435
		c0.067,96.683,77.894,174.45,174.572,174.438c96.564-0.012,174.367-77.982,174.311-174.688
		C596.379,201.703,518.425,123.806,422.124,123.844z"/>
	<path fill-rule="evenodd" clip-rule="evenodd" d="M422.402,148.413c82.65,0.185,149.616,67.46,149.459,150.147
		c-0.158,82.697-67.368,149.713-150.023,149.59c-82.927-0.123-149.971-67.484-149.696-150.403
		C272.416,215.068,339.671,148.229,422.402,148.413z M422.172,424.24c69.459-0.037,125.81-56.541,125.785-126.128
		c-0.023-69.456-56.518-125.802-126.123-125.792c-69.222,0.011-125.753,56.469-125.791,125.628
		C296.005,367.821,352.388,424.277,422.172,424.24z"/>
	<path fill-rule="evenodd" clip-rule="evenodd" d="M421.913,197.911c55.536-0.063,100.551,44.926,100.462,100.405
		c-0.088,55.633-45.024,100.474-100.538,100.325c-55.453-0.147-99.955-44.629-100.198-100.152
		C321.395,243.058,366.342,197.974,421.913,197.911z M421.899,221.823c-20.944,0.245-39.073,7.506-53.877,22.363
		c-17.245,17.306-24.886,38.553-22.194,62.637c4.236,37.903,36.031,67.486,75.818,67.963c36.767,0.441,78.967-28.484,76.814-80.501
		C496.572,248.625,458.641,221.421,421.899,221.823z"/>
	<path fill-rule="evenodd" clip-rule="evenodd" d="M390.003,298.278c-0.026-17.401,14.304-32.006,31.773-31.938
		c16.974,0.066,32.442,12.264,31.995,32.921c-0.36,16.58-12.608,30.777-32.001,30.948
		C404.329,330.364,390.03,315.737,390.003,298.278z"/>
</g>
</svg>
